<svg width="80" height="80" viewBox="0 0 80 80" fill="none" xmlns="http://www.w3.org/2000/svg">
<rect width="80" height="80" rx="40" fill="#B1002F"/>
<g filter="url(#filter0_i_25_10680)">
<g clip-path="url(#clip0_25_10680)">
<rect width="80" height="80" rx="40" fill="#B1002F"/>
<g filter="url(#filter1_di_25_10680)">
<ellipse cx="40" cy="76" rx="32" ry="24" fill="white"/>
<path d="M71.5 76C71.5 82.4348 68.0236 88.2985 62.3274 92.5706C56.6311 96.8428 48.7388 99.5 40 99.5C31.2612 99.5 23.3689 96.8428 17.6726 92.5706C11.9764 88.2985 8.5 82.4348 8.5 76C8.5 69.5652 11.9764 63.7015 17.6726 59.4294C23.3689 55.1572 31.2612 52.5 40 52.5C48.7388 52.5 56.6311 55.1572 62.3274 59.4294C68.0236 63.7015 71.5 69.5652 71.5 76Z" stroke="white"/>
</g>
<circle cx="40" cy="32" r="15.5" fill="white" stroke="white"/>
</g>
</g>
<defs>
<filter id="filter0_i_25_10680" x="0" y="-8" width="80" height="88" filterUnits="userSpaceOnUse" color-interpolation-filters="sRGB">
<feFlood flood-opacity="0" result="BackgroundImageFix"/>
<feBlend mode="normal" in="SourceGraphic" in2="BackgroundImageFix" result="shape"/>
<feColorMatrix in="SourceAlpha" type="matrix" values="0 0 0 0 0 0 0 0 0 0 0 0 0 0 0 0 0 0 127 0" result="hardAlpha"/>
<feOffset dy="-8"/>
<feGaussianBlur stdDeviation="8"/>
<feComposite in2="hardAlpha" operator="arithmetic" k2="-1" k3="1"/>
<feColorMatrix type="matrix" values="0 0 0 0 0.912 0 0 0 0 0.208 0 0 0 0 0.208 0 0 0 0.24 0"/>
<feBlend mode="normal" in2="shape" result="effect1_innerShadow_25_10680"/>
</filter>
<filter id="filter1_di_25_10680" x="4" y="44" width="72" height="64" filterUnits="userSpaceOnUse" color-interpolation-filters="sRGB">
<feFlood flood-opacity="0" result="BackgroundImageFix"/>
<feColorMatrix in="SourceAlpha" type="matrix" values="0 0 0 0 0 0 0 0 0 0 0 0 0 0 0 0 0 0 127 0" result="hardAlpha"/>
<feOffset dy="4"/>
<feGaussianBlur stdDeviation="2"/>
<feComposite in2="hardAlpha" operator="out"/>
<feColorMatrix type="matrix" values="0 0 0 0 0.912 0 0 0 0 0.208 0 0 0 0 0.208 0 0 0 0.24 0"/>
<feBlend mode="normal" in2="BackgroundImageFix" result="effect1_dropShadow_25_10680"/>
<feBlend mode="normal" in="SourceGraphic" in2="effect1_dropShadow_25_10680" result="shape"/>
<feColorMatrix in="SourceAlpha" type="matrix" values="0 0 0 0 0 0 0 0 0 0 0 0 0 0 0 0 0 0 127 0" result="hardAlpha"/>
<feOffset dy="-8"/>
<feGaussianBlur stdDeviation="4"/>
<feComposite in2="hardAlpha" operator="arithmetic" k2="-1" k3="1"/>
<feColorMatrix type="matrix" values="0 0 0 0 1 0 0 0 0 1 0 0 0 0 1 0 0 0 1 0"/>
<feBlend mode="normal" in2="shape" result="effect2_innerShadow_25_10680"/>
</filter>
<clipPath id="clip0_25_10680">
<rect width="80" height="80" rx="40" fill="white"/>
</clipPath>
</defs>
</svg>
