<svg width="68" height="68" viewBox="0 0 68 68" fill="none" xmlns="http://www.w3.org/2000/svg">
<mask id="path-1-inside-1_22_326" fill="white">
<path d="M0 12C0 5.37258 5.37258 0 12 0H56C62.6274 0 68 5.37258 68 12V56C68 62.6274 62.6274 68 56 68H12C5.37258 68 0 62.6274 0 56V12Z"/>
</mask>
<g filter="url(#filter0_i_22_326)">
<path d="M0 12C0 5.37258 5.37258 0 12 0H56C62.6274 0 68 5.37258 68 12V56C68 62.6274 62.6274 68 56 68H12C5.37258 68 0 62.6274 0 56V12Z" fill="#CE0037"/>
</g>
<path d="M-3 12C-3 4.8203 2.8203 -1 10 -1H58C65.1797 -1 71 4.8203 71 12H65C65 5.92487 60.9706 1 56 1H12C7.02944 1 3 5.92487 3 12H-3ZM71 56C71 64.2843 64.2843 71 56 71H12C3.71573 71 -3 64.2843 -3 56H3C3 60.9706 7.02944 65 12 65H56C60.9706 65 65 60.9706 65 56H71ZM12 71C3.71573 71 -3 64.2843 -3 56V12C-3 4.8203 2.8203 -1 10 -1L12 1C7.02944 1 3 5.92487 3 12V56C3 60.9706 7.02944 65 12 65V71ZM58 -1C65.1797 -1 71 4.8203 71 12V56C71 64.2843 64.2843 71 56 71V65C60.9706 65 65 60.9706 65 56V12C65 5.92487 60.9706 1 56 1L58 -1Z" fill="#CE0037" mask="url(#path-1-inside-1_22_326)"/>
<defs>
<filter id="filter0_i_22_326" x="0" y="-20" width="68" height="88" filterUnits="userSpaceOnUse" color-interpolation-filters="sRGB">
<feFlood flood-opacity="0" result="BackgroundImageFix"/>
<feBlend mode="normal" in="SourceGraphic" in2="BackgroundImageFix" result="shape"/>
<feColorMatrix in="SourceAlpha" type="matrix" values="0 0 0 0 0 0 0 0 0 0 0 0 0 0 0 0 0 0 127 0" result="hardAlpha"/>
<feOffset dy="-20"/>
<feGaussianBlur stdDeviation="20"/>
<feComposite in2="hardAlpha" operator="arithmetic" k2="-1" k3="1"/>
<feColorMatrix type="matrix" values="0 0 0 0 0.626416 0 0 0 0 0 0 0 0 0 0.167247 0 0 0 1 0"/>
<feBlend mode="normal" in2="shape" result="effect1_innerShadow_22_326"/>
</filter>
</defs>
</svg>
