<svg width="510" height="559" viewBox="0 0 510 559" fill="none" xmlns="http://www.w3.org/2000/svg">
<path d="M191.349 213.625C203.209 232.547 216.651 249.893 230.884 265.661C226.93 271.18 222.977 276.699 219.023 282.219L210.326 294.833C205.581 302.718 201.628 309.025 197.674 315.333C193.721 321.64 189.767 327.948 185.023 335.044C170.791 312.967 154.977 292.468 137.581 273.546C156.558 255.412 173.954 235.701 190.558 214.413L191.349 213.625Z" fill="#DDE7FF"/>
<path d="M498.14 361.851C472.837 397.33 445.954 432.81 411.954 458.828C405.628 463.559 392.186 471.443 385.861 469.866C381.907 465.924 379.535 454.886 378.744 447.001C374 403.638 383.488 363.427 387.442 317.698C388.233 296.41 390.605 269.604 377.163 247.528C373.209 240.432 362.14 231.759 349.488 230.182C337.628 229.394 329.721 232.547 324.186 234.913C289.395 255.412 269.628 287.738 248.279 319.275C225.349 354.755 204.791 390.234 185.814 427.291C158.93 368.158 121.767 313.756 71.9535 271.181C142.326 219.144 192.93 143.454 226.14 63.0339C249.86 1.53601 157.349 -27.6361 139.953 34.6502C121.767 115.859 85.3954 195.491 22.9302 252.258L0 272.757C102 331.89 147.07 450.944 177.116 558.959C198.465 516.384 223.767 466.712 248.279 424.925C274.372 381.561 301.256 327.948 336.837 291.68C343.163 350.812 321.023 421.772 347.907 480.116C366.093 517.172 406.419 507.711 430.14 483.269C464.14 450.944 487.86 410.733 508.419 369.735C512.372 362.639 501.302 356.331 496.558 363.427L498.14 361.851Z" fill="#DDE7FF"/>
</svg>
